<?xml version="1.0" encoding="UTF-8"?>
<!-- Generator: Adobe Illustrator 14.0.0, SVG Export Plug-In . SVG Version: 6.00 Build 43363)  -->
<!DOCTYPE svg PUBLIC "-//W3C//DTD SVG 1.1//EN" "http://www.w3.org/Graphics/SVG/1.1/DTD/svg11.dtd">
<svg version="1.1" id="Layer_1" xmlns="http://www.w3.org/2000/svg" xmlns:xlink="http://www.w3.org/1999/xlink" x="0px" y="0px" width="300px" height="300px" viewBox="0 0 300 300" enable-background="new 0 0 300 300" xml:space="preserve">
<path d="M169.021,7.917c8.479,0,15.354,6.874,15.354,15.354s-6.874,15.354-15.354,15.354c-8.48,0-15.354-6.874-15.354-15.354  S160.541,7.917,169.021,7.917 M169.021,13.917c-5.158,0-9.354,4.196-9.354,9.354s4.196,9.354,9.354,9.354  c5.156,0,9.354-4.196,9.354-9.354S174.179,13.917,169.021,13.917L169.021,13.917z"/>
<path d="M133.485,94.242c4.615,0.826,10.36,1.609,14.113-1.87c3.044-3.435,1.003-8.465-1.221-11.776  c-6.35-8.573-18.399-9.78-25.084-17.943c-4.873-6.12-3.712-15.031,0.457-21.194c5.893-8.673,15.064-14.145,23.443-20.097  c2.827-2.168,6.524-3.427,8.431-6.604c-8.859,1.034-17.919,2.598-25.839,6.947c-9.658,5.174-18.848,12.644-23.039,23.057  c-3.77,10.188-0.343,21.433,4.885,30.448C115.168,83.873,123.373,91.515,133.485,94.242z"/>
<path d="M240.561,136.557c-6.002-8.333-14.004-15.001-22.389-20.824c-4.278-2.802-8.909-5.642-14.166-5.83  c-2.855-0.443-5.549,1.546-7.246,3.65c-1.816,4.291,1.584,8.395,4.203,11.49c7.102,8.505,17.994,12.524,25.127,20.984  c-3.769,4.002-8.445,6.999-13.117,9.827c-6.9,4.285-14.063,8.141-21.254,11.91c-2.959,1.62-6.592,1.686-9.301,3.785  c8.99,1.113,17.998-0.74,26.799-2.426c8.293-1.473,16.539-3.758,23.964-7.822c5.058-2.753,9.54-7.347,10.729-13.137  C245.02,144.003,242.723,139.953,240.561,136.557z"/>
<path d="M89.011,207.21c5.134-0.414,9.211-3.954,12.69-7.438c10.829-9.915,21.167-20.566,29.227-32.9  c2.765-4.139,4.893-8.836,5.447-13.821c0.096-2.162-0.365-4.95-2.73-5.705c-2.55-1.08-5.097-2.869-7.99-2.488  c-4.539,0.534-8.728,2.679-12.254,5.517c-7.627,6.03-13.851,13.627-19.682,21.351c-4.683,6.4-9.923,12.539-12.904,19.99  c-1.284,3.411-2.885,7.288-1.307,10.891C81.09,206.21,85.451,207.2,89.011,207.21z"/>
<path d="M146.13,165.085c-9.447,3.413-15.901,11.616-21.58,19.488c-5.497,7.225-10.626,14.719-15.753,22.209  c-16.11,24.424-31.478,49.324-47.161,74.021c-2.143,4.451-5.322,8.471-6.646,13.271c1.574-0.653,3.14-1.46,4.192-2.849  c6.114-7.205,13.081-13.603,20.256-19.729c10.22-8.394,19.161-18.18,28.787-27.221c13.305-13.378,27.633-25.852,39.243-40.813  c5.964-7.68,11.872-15.772,14.688-25.203c1.337-4.165,0.784-9.207-2.477-12.341C155.66,163.365,150.462,163.244,146.13,165.085z"/>
<circle cx="188.967" cy="69.349" r="21.875"/>
</svg>